# xmcd CD database file
#
# Track frame offsets:
#	150
#	22314
#	66802
#	102459
#	148981
#	167517
#	179585
#	203421
#	241711
#	271441
#
# Disc length: 3909 seconds
#
# Revision: 2
# Processed by: cddbd v1.5.2PL0 Copyright (c) Steve Scherf et al.
# Submitted via: CDex 1.51
#
DISCID=910f430a
DTITLE=Carlos Santana - Jingo
DYEAR=2000
DGENRE=Blues
TTITLE0=Soul Sacrifice
TTITLE1=Jingo
TTITLE2=Evil Ways
TTITLE3=La Puesta Del Sol
TTITLE4=With A Little Help From My Friends
TTITLE5=Latin Tropical (short version)
TTITLE6=Persuasion
TTITLE7=Jam In E
TTITLE8=Let's Get Ourselves Together
TTITLE9=Travelin' Blues
EXTD=YEAR: 2000
EXTT0=
EXTT1=
EXTT2=
EXTT3=
EXTT4=
EXTT5=
EXTT6=
EXTT7=
EXTT8=
EXTT9=
PLAYORDER=
